<?xml version="1.0" encoding="utf-8" ?>	<!-- Generator: Assembly 2.4 - http://assemblyapp.co -->	<svg version="1.1" xmlns="http://www.w3.org/2000/svg" xmlns:xlink="http://www.w3.org/1999/xlink" width="75.00" height="75.00" viewBox="0 0 75.0 75.0">		<g id="document" transform="scale(0.25 0.25) translate(150.0 150.0)">			<g>				<g>					<path d="M32.5242,-93.8395 L3.58174,140.968 L3.58175,-93.8395 L32.5242,-93.8395 Z " fill="#000000" fill-opacity="1.00" stroke-width="0.93" stroke="#000000" stroke-linecap="round" stroke-linejoin="round" />					<path d="M52.4818,-112.592 C43.1656,-121.821 17.6372,-111.135 -4.58178,-88.7052 C-26.8008,-66.2759 -37.2459,-40.648 -27.9298,-31.4192 L52.4818,-112.592 Z " fill="#000000" fill-opacity="1.00" stroke-width="0.93" stroke="#000000" stroke-linecap="round" stroke-linejoin="round" />				</g>				<path d="M46.5353,-130.707 C39.9786,-142.064 22.69,-144.34 7.89011,-135.795 C-6.90975,-127.25 -13.5828,-111.14 -7.02609,-99.7833 L46.5353,-130.707 Z " fill="#000000" fill-opacity="1.00" stroke-width="0.93" stroke="#000000" stroke-linecap="round" stroke-linejoin="round" />				<path d="M-26.7753,-78.8264 C-35.9789,-74.7071 -46.764,-78.823 -50.8833,-88.0266 C-55.0025,-97.2301 -50.8866,-108.015 -41.6831,-112.135 C-32.4795,-116.254 -21.6943,-112.138 -17.5751,-102.934 C-13.4558,-93.7308 -17.5717,-82.9456 -26.7753,-78.8264 Z " fill="#000000" fill-opacity="1.00" stroke-width="0.93" stroke="#000000" stroke-linecap="round" stroke-linejoin="round" />			</g>		</g>	</svg>